<?xml version="1.0" encoding="iso-8859-1"?>
<!-- Uploaded to: SVG Repo, www.svgrepo.com, Generator: SVG Repo Mixer Tools -->
<svg fill="#000000" height="800px" width="800px" version="1.1" id="Layer_1" xmlns="http://www.w3.org/2000/svg" xmlns:xlink="http://www.w3.org/1999/xlink" 
	 viewBox="0 0 491.029 491.029" xml:space="preserve">
<g>
	<g>
		<path d="M470.129,1.515h-66.6c-9.4,0-17.7,5.2-19.8,14.6l-71.8,263.2h-212.1l-51-155h225.8c11.4,0,20.8-9.4,20.8-20.8
			s-9.4-20.8-20.8-20.8h-253.9c-15.5,0-23.6,15.2-19.8,27l64.5,196.7c3.1,8.3,11.4,13.5,19.8,13.5h241.4c9.4,0,17.7-6.2,20.8-13.5
			l71.8-263.2h51c11.4,0,20.8-9.4,20.8-20.8S481.629,1.515,470.129,1.515z"/>
		<path d="M283.929,350.115c-38.5,0-69.7,31.2-69.7,69.7s31.2,69.7,69.7,69.7c39.5,0,69.7-31.2,69.7-69.7
			S322.429,350.115,283.929,350.115z M283.929,447.815c-15.6,0-29.1-13.5-29.1-29.1s12.5-29.1,29.1-29.1s29.1,13.5,29.1,29.1
			S300.529,447.815,283.929,447.815z"/>
		<path d="M126.829,350.115c-38.5,0-69.7,31.2-69.7,69.7s31.2,69.7,69.7,69.7s69.7-31.2,69.7-69.7S165.329,350.115,126.829,350.115z
			 M126.829,447.815c-15.6,0-29.1-13.5-29.1-29.1s12.5-29.1,29.1-29.1c15.6,0,29.1,13.5,29.1,29.1S143.429,447.815,126.829,447.815z
			"/>
	</g>
</g>
</svg>